<?xml version="1.0" encoding="UTF-8" standalone="no"?><!DOCTYPE svg PUBLIC "-//W3C//DTD SVG 1.1//EN" "http://www.w3.org/Graphics/SVG/1.1/DTD/svg11.dtd"><svg width="100%" height="100%" viewBox="0 0 78 78" version="1.1" xmlns="http://www.w3.org/2000/svg" xmlns:xlink="http://www.w3.org/1999/xlink" xml:space="preserve" xmlns:serif="http://www.serif.com/" style="fill-rule:evenodd;clip-rule:evenodd;stroke-linecap:round;stroke-linejoin:round;stroke-miterlimit:1.5;"><path d="M3.008,39.773c-0.005,-0.257 -0.008,-0.515 -0.008,-0.773c0,-14.113 8.139,-26.341 19.976,-32.241c4.827,-2.405 10.269,-3.759 16.024,-3.759c19.869,-0 36,16.131 36,36c-0,19.869 -16.131,36 -36,36c-0.265,-0 -0.529,-0.003 -0.792,-0.009c9.609,-0.212 18.253,-4.373 24.374,-10.925c6.808,-6.299 11.073,-15.312 11.073,-25.315c0,-19.024 -15.429,-34.47 -34.434,-34.47c-9.918,0 -18.862,4.207 -25.148,10.934c-6.636,6.14 -10.856,14.858 -11.065,24.558Z" style="fill:#fff;"/><path d="M39,3c19.869,-0 36,16.131 36,36c-0,19.869 -16.131,36 -36,36c-19.869,-0 -36,-16.131 -36,-36c-0,-14.113 8.139,-26.341 19.976,-32.241c4.827,-2.405 10.269,-3.759 16.024,-3.759Z" style="fill:none;stroke:#000;stroke-width:0.2px;"/><path id="Inside-SW" serif:id="Inside SW" d="M37.434,6.06c19.005,-0 34.434,15.445 34.434,34.47c0,19.024 -15.429,34.47 -34.434,34.47c-19.005,-0 -34.434,-15.446 -34.434,-34.47c0,-19.025 15.429,-34.47 34.434,-34.47Zm1.787,-1.779c19.005,0 34.434,15.446 34.434,34.47c0,19.025 -15.429,34.47 -34.434,34.47c-19.004,0 -34.434,-15.445 -34.434,-34.47c0,-19.024 15.43,-34.47 34.434,-34.47Z" style="fill:#0dcaf2;stroke:#000;stroke-width:0.2px;"/><circle cx="39.09" cy="38.873" r="30.1" style="fill:none;stroke:#000;stroke-width:0.1px;stroke-dasharray:0.1,0.4,0.1,0.4,0.1,0.4;"/><circle cx="39.09" cy="38.873" r="31.896" style="fill:none;stroke:#000;stroke-width:0.1px;stroke-dasharray:0.1,0.4,0.1,0.4,0.1,0.4;"/><circle cx="39.09" cy="38.873" r="31.144" style="fill:none;stroke:#000;stroke-width:0.2px;"/><circle cx="39.09" cy="38.873" r="28.829" style="fill:none;stroke:#000;stroke-width:0.1px;stroke-dasharray:0.1,0.4,0.1,0.4,0.1,0.4;"/><circle cx="39.09" cy="38.873" r="27.469" style="fill:none;stroke:#000;stroke-width:0.1px;stroke-dasharray:0.1,0.4,0.1,0.4,0.1,0.4;"/><circle cx="39.09" cy="38.873" r="26.265" style="fill:none;stroke:#000;stroke-width:0.1px;stroke-dasharray:0.1,0.4,0.1,0.4,0.1,0.4;"/><g><circle cx="39.09" cy="38.873" r="21.599" style="fill:none;stroke:#000;stroke-width:0.1px;stroke-dasharray:0.1,0.4,0.1,0.4,0.1,0.4;"/><circle cx="39.09" cy="38.873" r="22.888" style="fill:none;stroke:#000;stroke-width:0.1px;stroke-dasharray:0.1,0.4,0.1,0.4,0.1,0.4;"/><circle cx="39.09" cy="38.873" r="22.349" style="fill:none;stroke:#000;stroke-width:0.2px;"/><circle cx="39.09" cy="38.873" r="20.688" style="fill:none;stroke:#000;stroke-width:0.1px;stroke-dasharray:0.1,0.4,0.1,0.4,0.1,0.4;"/><circle cx="39.09" cy="38.873" r="19.712" style="fill:none;stroke:#000;stroke-width:0.1px;stroke-dasharray:0.1,0.4,0.1,0.4,0.1,0.4;"/><circle cx="39.09" cy="38.873" r="18.848" style="fill:none;stroke:#000;stroke-width:0.1px;stroke-dasharray:0.1,0.4,0.1,0.4,0.1,0.4;"/></g><circle cx="43.574" cy="38.989" r="0.12"/><circle cx="43.574" cy="38.989" r="0.12"/><circle cx="42.755" cy="38.995" r="0.12"/><circle cx="41.695" cy="39" r="0.12"/><circle cx="40.636" cy="39.006" r="0.12"/><circle cx="39.577" cy="39.012" r="0.12"/><circle cx="38.517" cy="39.017" r="0.12"/><circle cx="37.458" cy="39.023" r="0.12"/><circle cx="36.399" cy="39.029" r="0.12"/><circle cx="35.339" cy="39.034" r="0.12"/><circle cx="34.28" cy="39.04" r="0.12"/><circle cx="33.221" cy="39.046" r="0.12"/><circle cx="43.574" cy="38.029" r="0.12"/><circle cx="43.574" cy="38.029" r="0.12"/><circle cx="42.755" cy="38.035" r="0.12"/><circle cx="41.695" cy="38.04" r="0.12"/><circle cx="40.636" cy="38.046" r="0.12"/><circle cx="39.577" cy="38.052" r="0.12"/><circle cx="38.517" cy="38.057" r="0.12"/><circle cx="37.458" cy="38.063" r="0.12"/><circle cx="36.399" cy="38.069" r="0.12"/><circle cx="35.339" cy="38.074" r="0.12"/><circle cx="34.28" cy="38.08" r="0.12"/><circle cx="33.221" cy="38.086" r="0.12"/><circle cx="43.574" cy="39.949" r="0.12"/><circle cx="43.574" cy="39.949" r="0.12"/><circle cx="42.755" cy="39.955" r="0.12"/><circle cx="41.695" cy="39.96" r="0.12"/><circle cx="40.636" cy="39.966" r="0.12"/><circle cx="39.577" cy="39.972" r="0.12"/><circle cx="38.517" cy="39.977" r="0.12"/><circle cx="37.458" cy="39.983" r="0.12"/><circle cx="36.399" cy="39.989" r="0.12"/><circle cx="35.339" cy="39.994" r="0.12"/><circle cx="34.28" cy="40" r="0.12"/><circle cx="33.221" cy="40.006" r="0.12"/><circle cx="42.755" cy="40.915" r="0.12"/><circle cx="41.695" cy="40.92" r="0.12"/><circle cx="40.636" cy="40.926" r="0.12"/><circle cx="39.577" cy="40.932" r="0.12"/><circle cx="38.517" cy="40.937" r="0.12"/><circle cx="37.458" cy="40.943" r="0.12"/><circle cx="42.755" cy="41.875" r="0.12"/><circle cx="41.695" cy="41.88" r="0.12"/><circle cx="40.636" cy="41.886" r="0.12"/><circle cx="39.577" cy="41.892" r="0.12"/><circle cx="38.517" cy="41.897" r="0.12"/><circle cx="37.458" cy="41.903" r="0.12"/><circle cx="36.399" cy="41.909" r="0.12"/><circle cx="35.339" cy="41.914" r="0.12"/><circle cx="34.28" cy="41.92" r="0.12"/><circle cx="41.695" cy="42.84" r="0.12"/><circle cx="40.636" cy="42.846" r="0.12"/><circle cx="39.577" cy="42.852" r="0.12"/><circle cx="38.517" cy="42.857" r="0.12"/><circle cx="37.458" cy="42.863" r="0.12"/><circle cx="36.399" cy="42.869" r="0.12"/><circle cx="35.339" cy="42.874" r="0.12"/><circle cx="40.636" cy="43.806" r="0.12"/><circle cx="39.577" cy="43.812" r="0.12"/><circle cx="38.517" cy="43.817" r="0.12"/><circle cx="37.458" cy="43.823" r="0.12"/><circle cx="42.755" cy="37.075" r="0.12"/><circle cx="41.695" cy="37.08" r="0.12"/><circle cx="40.636" cy="37.086" r="0.12"/><circle cx="39.577" cy="37.092" r="0.12"/><circle cx="38.517" cy="37.097" r="0.12"/><circle cx="37.458" cy="37.103" r="0.12"/><circle cx="41.695" cy="35.16" r="0.12"/><circle cx="40.636" cy="35.166" r="0.12"/><circle cx="39.577" cy="35.172" r="0.12"/><circle cx="38.517" cy="35.177" r="0.12"/><circle cx="37.458" cy="35.183" r="0.12"/><circle cx="36.399" cy="35.189" r="0.12"/><circle cx="35.339" cy="35.194" r="0.12"/><circle cx="40.636" cy="34.206" r="0.12"/><circle cx="39.577" cy="34.212" r="0.12"/><circle cx="38.517" cy="34.217" r="0.12"/><circle cx="37.458" cy="34.223" r="0.12"/><circle cx="42.755" cy="36.115" r="0.12"/><circle cx="41.695" cy="36.12" r="0.12"/><circle cx="40.636" cy="36.126" r="0.12"/><circle cx="39.577" cy="36.132" r="0.12"/><circle cx="38.517" cy="36.137" r="0.12"/><circle cx="37.458" cy="36.143" r="0.12"/><circle cx="36.399" cy="36.149" r="0.12"/><circle cx="35.339" cy="36.154" r="0.12"/><circle cx="34.28" cy="36.16" r="0.12"/><circle cx="37.986" cy="39.023" r="0.12"/><circle cx="36.926" cy="39.029" r="0.12"/><circle cx="35.867" cy="39.034" r="0.12"/><circle cx="34.808" cy="39.04" r="0.12"/><circle cx="33.748" cy="39.046" r="0.12"/><circle cx="37.986" cy="38.063" r="0.12"/><circle cx="36.926" cy="38.069" r="0.12"/><circle cx="35.867" cy="38.074" r="0.12"/><circle cx="34.808" cy="38.08" r="0.12"/><circle cx="33.748" cy="38.086" r="0.12"/><circle cx="37.986" cy="39.983" r="0.12"/><circle cx="36.926" cy="39.989" r="0.12"/><circle cx="35.867" cy="39.994" r="0.12"/><circle cx="34.808" cy="40" r="0.12"/><circle cx="33.748" cy="40.006" r="0.12"/><circle cx="37.986" cy="40.943" r="0.12"/><circle cx="36.926" cy="40.949" r="0.12"/><circle cx="37.986" cy="41.903" r="0.12"/><circle cx="36.926" cy="41.909" r="0.12"/><circle cx="35.867" cy="41.914" r="0.12"/><circle cx="34.808" cy="41.92" r="0.12"/><circle cx="37.986" cy="42.863" r="0.12"/><circle cx="36.926" cy="42.869" r="0.12"/><circle cx="35.867" cy="42.874" r="0.12"/><circle cx="37.986" cy="43.823" r="0.12"/><circle cx="36.926" cy="43.829" r="0.12"/><circle cx="37.986" cy="37.103" r="0.12"/><circle cx="36.926" cy="37.109" r="0.12"/><circle cx="37.986" cy="35.183" r="0.12"/><circle cx="36.926" cy="35.189" r="0.12"/><circle cx="35.867" cy="35.194" r="0.12"/><circle cx="37.986" cy="34.223" r="0.12"/><circle cx="36.926" cy="34.229" r="0.12"/><circle cx="37.986" cy="36.143" r="0.12"/><circle cx="36.926" cy="36.149" r="0.12"/><circle cx="35.867" cy="36.154" r="0.12"/><circle cx="34.808" cy="36.16" r="0.12"/></svg>